<svg width="28" height="29" viewBox="0 0 28 29" fill="none" xmlns="http://www.w3.org/2000/svg">
<path d="M13.7864 19.3162C21.1234 19.3162 27.0713 17.0452 27.0713 14.2438C27.0713 11.4424 21.1234 9.17139 13.7864 9.17139C6.44932 9.17139 0.501465 11.4424 0.501465 14.2438C0.501465 17.0452 6.44932 19.3162 13.7864 19.3162Z" stroke="white"/>
<path d="M9.39339 16.7801C13.0619 23.1342 18.0026 27.1497 20.4287 25.749C22.8548 24.3483 21.8476 18.0618 18.1791 11.7077C14.5106 5.35363 9.56988 1.33814 7.14378 2.73885C4.71767 4.13956 5.72486 10.4261 9.39339 16.7801Z" stroke="white"/>
<path d="M9.39363 11.7076C5.7251 18.0616 4.71792 24.3481 7.14402 25.7488C9.57012 27.1495 14.5108 23.134 18.1793 16.78C21.8478 10.4259 22.855 4.1394 20.4289 2.73869C18.0028 1.33798 13.0622 5.35348 9.39363 11.7076Z" stroke="white"/>
</svg>
